<svg width="16" height="16" viewBox="0 0 16 16" fill="none" xmlns="http://www.w3.org/2000/svg">
<path d="M5.58437 10.6095C5.74799 10.725 5.94349 10.7868 6.14378 10.7863C6.34408 10.7858 6.53927 10.7231 6.70231 10.6067C6.86758 10.486 6.99293 10.3188 7.06164 10.1257L7.47669 8.85073C7.5832 8.53116 7.76254 8.24073 8.00055 8.00238C8.23856 7.76403 8.52872 7.58428 8.84811 7.47733L10.1397 7.05946C10.3306 6.99032 10.4951 6.863 10.6099 6.69544C10.7246 6.52788 10.7839 6.32853 10.7794 6.12547C10.7749 5.92242 10.7068 5.7259 10.5847 5.56361C10.4626 5.40131 10.2927 5.28142 10.0988 5.22083L8.82211 4.80482C8.5024 4.69843 8.21181 4.51913 7.97331 4.28109C7.73481 4.04305 7.55494 3.7528 7.44791 3.43328L7.02822 2.14438C6.96064 1.95449 6.83556 1.79039 6.67038 1.67491C6.50521 1.55943 6.30814 1.4983 6.10661 1.50004C5.90508 1.50177 5.7091 1.56629 5.54594 1.6846C5.38278 1.80291 5.26055 1.96914 5.19625 2.16017L4.77192 3.46021C4.66539 3.77116 4.48972 4.0539 4.25812 4.28713C4.02652 4.52035 3.74503 4.698 3.43485 4.80668L2.14421 5.22176C1.95442 5.28949 1.79042 5.41464 1.67498 5.57982C1.55954 5.74501 1.4984 5.94205 1.50003 6.14357C1.50167 6.3451 1.566 6.54111 1.6841 6.70441C1.80219 6.8677 1.9682 6.99017 2.15907 7.05482L3.43485 7.46804C3.75619 7.57469 4.04801 7.75527 4.28685 7.99525C4.52568 8.23524 4.70487 8.52794 4.80999 8.8498L5.22968 10.1415C5.29653 10.3309 5.42095 10.4944 5.58437 10.6095ZM5.66329 3.72393L6.15262 2.44525L6.56117 3.72393C6.713 4.1818 6.96985 4.5978 7.31116 4.93866C7.65248 5.27952 8.0688 5.53579 8.52685 5.68699L9.83234 6.17915L8.54913 6.59423C8.09148 6.7466 7.67567 7.00363 7.33476 7.3449C6.99385 7.68616 6.73724 8.10224 6.58531 8.56008L6.0997 9.83969L5.68279 8.56008C5.53298 8.10242 5.27866 7.68593 4.93998 7.34361C4.59705 7.00223 4.18025 6.74424 3.72176 6.58959L2.44226 6.10486L3.72919 5.68699C4.18103 5.53047 4.59084 5.27216 4.92698 4.93204C5.26052 4.59049 5.51227 4.17682 5.66329 3.72393ZM11.2827 14.3638C11.3777 14.4306 11.4869 14.4744 11.6017 14.4917C11.7165 14.5089 11.8338 14.4993 11.9442 14.4634C12.0546 14.4276 12.1552 14.3665 12.238 14.2851C12.3207 14.2037 12.3834 14.1041 12.4211 13.9942L12.6513 13.2867C12.7005 13.1399 12.7841 13.0062 12.8927 12.8966C13.0023 12.7852 13.136 12.7035 13.2827 12.6552L13.9995 12.4212C14.1475 12.3701 14.2755 12.2737 14.3653 12.1456C14.4552 12.0174 14.5023 11.8642 14.4999 11.7077C14.4975 11.5513 14.4458 11.3995 14.3521 11.2742C14.2585 11.1488 14.1276 11.0563 13.9782 11.0097L13.2688 10.7776C13.1221 10.7284 12.9888 10.646 12.8793 10.5368C12.7697 10.4276 12.687 10.2945 12.6374 10.148L12.4034 9.43018C12.3532 9.28254 12.2577 9.15446 12.1306 9.0641C12.0036 8.97373 11.8513 8.92565 11.6953 8.92668C11.5394 8.9277 11.3877 8.97778 11.2618 9.06982C11.1359 9.16186 11.0422 9.29118 10.9939 9.43946L10.7646 10.1471C10.7172 10.2926 10.6368 10.4253 10.5297 10.5346C10.4226 10.644 10.2916 10.7272 10.1471 10.7776L9.42937 11.0116C9.28168 11.0616 9.15349 11.1569 9.06297 11.2839C8.97244 11.4109 8.92417 11.5631 8.92499 11.7191C8.92581 11.875 8.97569 12.0268 9.06755 12.1528C9.15941 12.2788 9.28859 12.3727 9.43679 12.4212L10.1453 12.6506C10.2938 12.7007 10.4275 12.7834 10.5371 12.8929C10.6476 13.0034 10.7293 13.1371 10.7766 13.2848L11.0116 14.0035C11.0624 14.1488 11.1572 14.2747 11.2827 14.3638ZM10.435 11.7703L10.2687 11.7155L10.4396 11.656C10.7212 11.5585 10.9765 11.3975 11.1858 11.1854C11.3952 10.9734 11.5529 10.7159 11.6467 10.4331L11.7005 10.2678L11.7562 10.4359C11.851 10.7205 12.0108 10.9791 12.2229 11.1912C12.435 11.4033 12.6936 11.5631 12.9782 11.6579L13.1592 11.7164L12.9921 11.7721C12.7069 11.8672 12.4479 12.0275 12.2356 12.2403C12.0233 12.4531 11.8636 12.7125 11.7692 12.9979L11.7144 13.1659L11.6606 12.9988C11.5663 12.7126 11.4063 12.4524 11.1935 12.2391C10.9807 12.0258 10.7209 11.8652 10.435 11.7703Z" fill="#6C707E"/>
</svg>
