<svg width="16" height="16" viewBox="0 0 16 16" fill="none" xmlns="http://www.w3.org/2000/svg">
    <circle cx="8" cy="8" r="6.5" fill="#F2FCF3" stroke="#208A3C"/>
    <path d="M7.9999 11.5C8.33127 11.5 8.5999 11.2314 8.5999 10.9L8.5999 7.50156C8.5999 7.17019 8.33127 6.90156 7.9999 6.90156C7.66853 6.90156 7.3999 7.17019 7.3999 7.50156L7.3999 10.9C7.3999 11.2314 7.66853 11.5 7.9999 11.5Z" fill="#208A3C"/>
    <path d="M8.8002 5.30156C8.8002 4.85973 8.44202 4.50156 8.0002 4.50156C7.55837 4.50156 7.2002 4.85973 7.2002 5.30156C7.2002 5.74339 7.55837 6.10156 8.0002 6.10156C8.44202 6.10156 8.8002 5.74339 8.8002 5.30156Z" fill="#208A3C"/>
</svg>
