<svg width="20" height="20" viewBox="0 0 20 20" fill="none" xmlns="http://www.w3.org/2000/svg">
<path d="M16.3282 14.8068C15.7919 15.9538 14.9924 16.5428 13.9589 16.8632C12.8669 17.1938 11.5507 17.2352 10.0102 17.2352C8.46967 17.2352 7.14367 17.2042 6.06142 16.8632C5.01817 16.5428 4.21867 15.9538 3.69217 14.8172C3.24367 13.8355 2.95117 12.3785 2.95117 10.1878C2.95117 9.17516 3.09742 8.21416 3.38992 7.37716C3.80917 6.17849 4.54042 5.16582 5.60317 4.45282C6.66592 3.73982 8.11867 3.28516 10.0297 3.28516C11.9407 3.28516 13.3934 3.72949 14.4659 4.44249C15.5287 5.15549 16.2502 6.15782 16.6694 7.36682C16.9522 8.21416 17.1082 9.16482 17.0984 10.1775V10.2602C17.0984 12.4612 16.7864 13.8355 16.3282 14.8068Z" stroke="#CED0D6" stroke-width="1.5"/>
<path d="M17.3309 7.09522C16.3934 4.38678 14.0495 2.5 10.0099 2.5C5.98038 2.5 3.63647 4.39692 2.68893 7.09522C2.35979 8.03863 2.2002 9.08343 2.2002 10.179C2.2002 12.4309 2.49942 14.0236 3.01808 15.1496C4.29476 17.8884 6.94787 18 9.99999 18C13.0521 18 15.7052 17.8884 16.9819 15.1496C17.5105 14.0236 17.7998 12.4309 17.7998 10.179C17.8097 9.08343 17.6501 8.03863 17.3309 7.09522ZM16.0543 14.3279C15.007 16.5494 12.693 17.0465 10.0099 17.0465C7.32691 17.0465 5.0129 16.5494 3.96562 14.3279C3.5866 13.5164 3.36717 12.4918 3.36717 11.2035C3.36717 10.0066 3.52676 8.8907 3.98557 7.95745C4.79347 6.30399 6.53895 5.20844 10.0099 5.20844C13.481 5.20844 15.2264 6.30399 16.0343 7.95745C16.4931 8.8907 16.6527 10.0066 16.6527 11.2035C16.6527 12.4817 16.4333 13.5062 16.0543 14.3279Z" fill="#CED0D6"/>
<path d="M3.59833 7.2477C3.59833 7.2477 2.69575 7.13904 2.13701 7.32293C1.99947 7.36473 0.649902 7.73252 0.649902 10.7835C0.649902 14.1188 2.22297 14.2442 2.29174 14.2609C3.50377 14.5284 3.6499 14.3277 3.6499 14.3277" stroke="#CED0D6" stroke-width="1.3" stroke-miterlimit="10"/>
<path d="M16.6499 7.21598C16.6499 7.21598 17.3043 7.13927 17.863 7.32317C18.0005 7.36496 19.3501 7.73276 19.3501 10.7838C19.3501 14.119 17.777 14.2444 17.7083 14.2611C16.4962 14.5286 16.3501 14.328 16.3501 14.328" stroke="#CED0D6" stroke-width="1.3" stroke-miterlimit="10"/>
</svg>
